<svg width="161" height="197" viewBox="0 0 161 197" fill="none" xmlns="http://www.w3.org/2000/svg">
<path d="M0.888984 0.457952C20.3014 38.1413 53.6449 64.9418 93.4446 79.7672C107.152 84.8732 123.434 88.3913 138.214 87.4228C144.916 86.9836 157.145 84.4747 159.351 77.2505C163.012 65.2557 142.642 64.2119 135.297 64.2299C122.02 64.2624 105.258 79.8713 105.7 93.4138C106.521 118.552 125.535 145.406 138.718 165.815C143.981 173.963 151.066 181.246 155.896 189.507C157.77 192.712 157.264 182.615 157.641 180.789C159.867 170.018 159.531 169.713 159.024 181.691C158.954 183.35 159.361 194.988 158.53 195.474C157.95 195.814 138.061 187.24 135.538 186.87" stroke="#1C1C1C" stroke-width="2"/>
</svg>
