<svg width="419" height="104" viewBox="0 0 419 104" fill="none" xmlns="http://www.w3.org/2000/svg">
<path d="M51 0C58.9716 0 65.434 6.34942 65.434 14.1818C65.434 22.0142 58.9716 28.3636 51 28.3636C43.0284 28.3636 36.566 22.0142 36.566 14.1818C36.566 6.34942 43.0284 0 51 0Z" fill="#141414"/>
<path d="M87.566 17.0182C95.5377 17.0182 102 23.3676 102 31.2C102 39.0324 95.5377 45.3818 87.566 45.3818C79.5944 45.3818 73.1321 39.0324 73.1321 31.2C73.1321 23.3676 79.5944 17.0182 87.566 17.0182Z" fill="#141414"/>
<path d="M51 37.8182C58.9716 37.8182 65.434 44.1676 65.434 52C65.434 59.8324 58.9716 66.1818 51 66.1818C43.0284 66.1818 36.566 59.8324 36.566 52C36.566 44.1676 43.0284 37.8182 51 37.8182Z" fill="#141414"/>
<path d="M51 75.6364C58.9716 75.6364 65.434 81.9858 65.434 89.8182C65.434 97.6506 58.9716 104 51 104C43.0284 104 36.566 97.6506 36.566 89.8182C36.566 81.9858 43.0284 75.6364 51 75.6364Z" fill="#141414"/>
<path d="M14.434 58.6182C22.4056 58.6182 28.8679 64.9676 28.8679 72.8C28.8679 80.6324 22.4056 86.9818 14.434 86.9818C6.4623 86.9818 0 80.6324 0 72.8C0 64.9676 6.4623 58.6182 14.434 58.6182Z" fill="#141414"/>
<path d="M158.727 83H138.026V21.9091H159.145C165.21 21.9091 170.42 23.1321 174.776 25.5781C179.151 28.0043 182.511 31.4943 184.858 36.0483C187.205 40.6023 188.378 46.0511 188.378 52.3949C188.378 58.7585 187.195 64.2273 184.828 68.8011C182.482 73.375 179.091 76.8849 174.656 79.331C170.241 81.777 164.932 83 158.727 83ZM149.092 73.4247H158.19C162.446 73.4247 165.996 72.6491 168.839 71.098C171.683 69.527 173.821 67.1903 175.253 64.0881C176.685 60.9659 177.401 57.0682 177.401 52.3949C177.401 47.7216 176.685 43.8437 175.253 40.7614C173.821 37.6591 171.703 35.3423 168.899 33.8111C166.115 32.2599 162.655 31.4844 158.518 31.4844H149.092V73.4247ZM215.34 83.8949C210.746 83.8949 206.778 82.9403 203.438 81.0312C200.117 79.1023 197.561 76.3778 195.771 72.858C193.982 69.3182 193.087 65.152 193.087 60.3594C193.087 55.6463 193.982 51.5099 195.771 47.9503C197.581 44.3707 200.107 41.5866 203.348 39.598C206.59 37.5895 210.398 36.5852 214.773 36.5852C217.597 36.5852 220.261 37.0426 222.767 37.9574C225.293 38.8523 227.52 40.2443 229.449 42.1335C231.398 44.0227 232.929 46.429 234.043 49.3523C235.156 52.2557 235.713 55.7159 235.713 59.733V63.044H198.158V55.7656H225.362C225.342 53.6974 224.895 51.858 224.02 50.2472C223.145 48.6165 221.922 47.3338 220.351 46.3991C218.8 45.4645 216.99 44.9972 214.922 44.9972C212.715 44.9972 210.776 45.5341 209.105 46.608C207.435 47.6619 206.132 49.054 205.198 50.7841C204.283 52.4943 203.815 54.3736 203.796 56.4219V62.7756C203.796 65.4403 204.283 67.7273 205.257 69.6364C206.232 71.5256 207.594 72.9773 209.344 73.9915C211.094 74.9858 213.142 75.483 215.489 75.483C217.06 75.483 218.482 75.2642 219.754 74.8267C221.027 74.3693 222.131 73.7031 223.065 72.8281C224 71.9531 224.706 70.8693 225.183 69.5767L235.266 70.7102C234.629 73.375 233.416 75.7017 231.627 77.6903C229.857 79.6591 227.59 81.1903 224.825 82.2841C222.061 83.358 218.899 83.8949 215.34 83.8949ZM241.488 100.182V37.1818H252.108V44.7585H252.734C253.291 43.6449 254.077 42.4616 255.091 41.2088C256.105 39.9361 257.477 38.8523 259.207 37.9574C260.937 37.0426 263.145 36.5852 265.829 36.5852C269.369 36.5852 272.561 37.4901 275.405 39.2997C278.268 41.0895 280.535 43.7443 282.206 47.2642C283.896 50.7642 284.741 55.0597 284.741 60.1506C284.741 65.1818 283.916 69.4574 282.265 72.9773C280.615 76.4972 278.368 79.1818 275.524 81.0312C272.68 82.8807 269.459 83.8054 265.859 83.8054C263.234 83.8054 261.057 83.3679 259.327 82.4929C257.596 81.6179 256.204 80.5639 255.15 79.331C254.116 78.0781 253.311 76.8949 252.734 75.7812H252.287V100.182H241.488ZM252.078 60.0909C252.078 63.054 252.496 65.6491 253.331 67.8764C254.186 70.1037 255.409 71.8437 257 73.0966C258.611 74.3295 260.559 74.946 262.846 74.946C265.233 74.946 267.231 74.3097 268.842 73.0369C270.453 71.7443 271.666 69.9844 272.481 67.7571C273.317 65.5099 273.734 62.9545 273.734 60.0909C273.734 57.2472 273.327 54.7216 272.511 52.5142C271.696 50.3068 270.483 48.5767 268.872 47.3239C267.261 46.071 265.253 45.4446 262.846 45.4446C260.54 45.4446 258.581 46.0511 256.97 47.2642C255.359 48.4773 254.136 50.1776 253.301 52.3651C252.486 54.5526 252.078 57.1278 252.078 60.0909ZM303.813 83.9247C300.91 83.9247 298.295 83.4077 295.968 82.3736C293.661 81.3196 291.832 79.7685 290.479 77.7202C289.147 75.6719 288.481 73.1463 288.481 70.1435C288.481 67.5582 288.958 65.4205 289.913 63.7301C290.867 62.0398 292.17 60.6875 293.82 59.6733C295.471 58.6591 297.33 57.8935 299.398 57.3764C301.486 56.8395 303.644 56.4517 305.871 56.2131C308.556 55.9347 310.734 55.6861 312.404 55.4673C314.074 55.2287 315.288 54.8707 316.043 54.3935C316.819 53.8963 317.207 53.1307 317.207 52.0966V51.9176C317.207 49.6705 316.54 47.9304 315.208 46.6974C313.876 45.4645 311.957 44.848 309.451 44.848C306.806 44.848 304.708 45.4247 303.157 46.5781C301.626 47.7315 300.592 49.0937 300.055 50.6648L289.972 49.233C290.768 46.4489 292.08 44.1222 293.91 42.2528C295.739 40.3636 297.976 38.9517 300.621 38.017C303.266 37.0625 306.19 36.5852 309.391 36.5852C311.599 36.5852 313.796 36.8438 315.984 37.3608C318.171 37.8778 320.17 38.733 321.979 39.9261C323.789 41.0994 325.241 42.7003 326.334 44.7287C327.448 46.7571 328.005 49.2926 328.005 52.3352V83H317.624V76.706H317.266C316.61 77.9787 315.685 79.1719 314.492 80.2855C313.319 81.3793 311.837 82.2642 310.047 82.9403C308.278 83.5966 306.199 83.9247 303.813 83.9247ZM306.617 75.9901C308.785 75.9901 310.664 75.5625 312.255 74.7074C313.846 73.8324 315.069 72.679 315.924 71.2472C316.799 69.8153 317.236 68.2543 317.236 66.5639V61.1648C316.898 61.4432 316.322 61.7017 315.506 61.9403C314.711 62.179 313.816 62.3878 312.822 62.5668C311.827 62.7457 310.843 62.9048 309.869 63.044C308.894 63.1832 308.049 63.3026 307.333 63.402C305.722 63.6207 304.28 63.9787 303.008 64.4759C301.735 64.973 300.731 65.669 299.995 66.5639C299.259 67.4389 298.891 68.5724 298.891 69.9645C298.891 71.9531 299.617 73.4545 301.069 74.4688C302.52 75.483 304.37 75.9901 306.617 75.9901ZM371.716 49.2926L361.872 50.3665C361.594 49.3722 361.107 48.4375 360.41 47.5625C359.734 46.6875 358.82 45.9815 357.666 45.4446C356.513 44.9077 355.101 44.6392 353.43 44.6392C351.183 44.6392 349.294 45.1264 347.763 46.1009C346.251 47.0753 345.506 48.3381 345.526 49.8892C345.506 51.2216 345.993 52.3054 346.987 53.1406C348.001 53.9759 349.672 54.6619 351.999 55.1989L359.814 56.8693C364.149 57.804 367.371 59.2855 369.479 61.3139C371.607 63.3423 372.68 65.9972 372.7 69.2784C372.68 72.1619 371.835 74.7074 370.165 76.9148C368.514 79.1023 366.217 80.8125 363.274 82.0455C360.331 83.2784 356.95 83.8949 353.132 83.8949C347.524 83.8949 343.01 82.7216 339.589 80.375C336.169 78.0085 334.131 74.7173 333.474 70.5014L344.004 69.4872C344.482 71.5554 345.496 73.1165 347.047 74.1705C348.598 75.2244 350.616 75.7514 353.102 75.7514C355.668 75.7514 357.726 75.2244 359.277 74.1705C360.848 73.1165 361.634 71.8139 361.634 70.2628C361.634 68.9503 361.126 67.8665 360.112 67.0114C359.118 66.1562 357.567 65.5 355.459 65.0426L347.643 63.402C343.249 62.4872 339.997 60.946 337.889 58.7784C335.781 56.5909 334.737 53.8267 334.757 50.4858C334.737 47.6619 335.503 45.2159 337.054 43.1477C338.625 41.0597 340.803 39.4489 343.587 38.3153C346.391 37.1619 349.622 36.5852 353.281 36.5852C358.651 36.5852 362.876 37.7287 365.959 40.0156C369.061 42.3026 370.98 45.3949 371.716 49.2926ZM414.457 49.2926L404.614 50.3665C404.335 49.3722 403.848 48.4375 403.152 47.5625C402.476 46.6875 401.561 45.9815 400.408 45.4446C399.254 44.9077 397.842 44.6392 396.172 44.6392C393.925 44.6392 392.036 45.1264 390.504 46.1009C388.993 47.0753 388.247 48.3381 388.267 49.8892C388.247 51.2216 388.734 52.3054 389.729 53.1406C390.743 53.9759 392.413 54.6619 394.74 55.1989L402.555 56.8693C406.891 57.804 410.112 59.2855 412.22 61.3139C414.348 63.3423 415.422 65.9972 415.442 69.2784C415.422 72.1619 414.577 74.7074 412.906 76.9148C411.256 79.1023 408.959 80.8125 406.016 82.0455C403.073 83.2784 399.692 83.8949 395.874 83.8949C390.266 83.8949 385.751 82.7216 382.331 80.375C378.911 78.0085 376.872 74.7173 376.216 70.5014L386.746 69.4872C387.223 71.5554 388.237 73.1165 389.788 74.1705C391.34 75.2244 393.358 75.7514 395.844 75.7514C398.409 75.7514 400.467 75.2244 402.019 74.1705C403.59 73.1165 404.375 71.8139 404.375 70.2628C404.375 68.9503 403.868 67.8665 402.854 67.0114C401.859 66.1562 400.308 65.5 398.2 65.0426L390.385 63.402C385.99 62.4872 382.739 60.946 380.631 58.7784C378.523 56.5909 377.479 53.8267 377.499 50.4858C377.479 47.6619 378.244 45.2159 379.796 43.1477C381.367 41.0597 383.544 39.4489 386.328 38.3153C389.132 37.1619 392.364 36.5852 396.023 36.5852C401.392 36.5852 405.618 37.7287 408.7 40.0156C411.803 42.3026 413.722 45.3949 414.457 49.2926Z" fill="#141414"/>
</svg>
