<svg width="102" height="104" viewBox="0 0 102 104" fill="none" xmlns="http://www.w3.org/2000/svg">
<path d="M51 0C58.9716 0 65.434 6.34942 65.434 14.1818C65.434 22.0142 58.9716 28.3636 51 28.3636C43.0284 28.3636 36.566 22.0142 36.566 14.1818C36.566 6.34942 43.0284 0 51 0Z" fill="#141414"/>
<path d="M87.566 17.0182C95.5377 17.0182 102 23.3676 102 31.2C102 39.0324 95.5377 45.3818 87.566 45.3818C79.5944 45.3818 73.1321 39.0324 73.1321 31.2C73.1321 23.3676 79.5944 17.0182 87.566 17.0182Z" fill="#141414"/>
<path d="M51 37.8182C58.9716 37.8182 65.434 44.1676 65.434 52C65.434 59.8324 58.9716 66.1818 51 66.1818C43.0284 66.1818 36.566 59.8324 36.566 52C36.566 44.1676 43.0284 37.8182 51 37.8182Z" fill="#141414"/>
<path d="M51 75.6364C58.9716 75.6364 65.434 81.9858 65.434 89.8182C65.434 97.6506 58.9716 104 51 104C43.0284 104 36.566 97.6506 36.566 89.8182C36.566 81.9858 43.0284 75.6364 51 75.6364Z" fill="#141414"/>
<path d="M14.434 58.6182C22.4056 58.6182 28.8679 64.9676 28.8679 72.8C28.8679 80.6324 22.4056 86.9818 14.434 86.9818C6.4623 86.9818 0 80.6324 0 72.8C0 64.9676 6.4623 58.6182 14.434 58.6182Z" fill="#141414"/>
</svg>
