<svg width="326" height="316" viewBox="0 0 326 316" fill="none" xmlns="http://www.w3.org/2000/svg">
<path d="M218.558 286.106C220.882 300.684 209.619 313.885 194.857 313.885H67.6585C55.8624 313.885 45.8151 305.312 43.9579 293.664L1.80518 29.2788C-0.519093 14.7007 10.7437 1.5 25.5058 1.5L152.704 1.5C164.5 1.5 174.548 10.0723 176.405 21.7212L218.558 286.106Z" fill="#329180ff"/>
<path d="M176.405 21.7212L177.886 21.4851L176.405 21.7212ZM43.9579 293.664L42.4766 293.9L43.9579 293.664ZM194.857 313.885V312.385H67.6585V313.885V315.385H194.857V313.885ZM43.9579 293.664L45.4392 293.427L3.28647 29.0426L1.80518 29.2788L0.323893 29.515L42.4766 293.9L43.9579 293.664ZM25.5058 1.5V3L152.704 3V1.5V0L25.5058 0V1.5ZM176.405 21.7212L174.924 21.9574L217.076 286.342L218.558 286.106L220.039 285.87L177.886 21.4851L176.405 21.7212ZM152.704 1.5V3C163.763 3 173.182 11.0365 174.924 21.9574L176.405 21.7212L177.886 21.4851C175.913 9.10804 165.238 0 152.704 0V1.5ZM1.80518 29.2788L3.28647 29.0426C1.10746 15.3757 11.6663 3 25.5058 3V1.5V0C9.82103 0 -2.14565 14.0258 0.323893 29.515L1.80518 29.2788ZM67.6585 313.885V312.385C56.5997 312.385 47.1804 304.348 45.4392 293.427L43.9579 293.664L42.4766 293.9C44.4499 306.277 55.1252 315.385 67.6585 315.385V313.885ZM194.857 313.885V315.385C210.542 315.385 222.508 301.359 220.039 285.87L218.558 286.106L217.076 286.342C219.255 300.009 208.696 312.385 194.857 312.385V313.885Z" fill="black"/>
<path d="M108.214 26.0642L116.154 26.0642" stroke="black" stroke-width="3" stroke-linejoin="round"/>
<path d="M54.4036 26.0642H95.5696" stroke="black" stroke-width="3" stroke-linejoin="round"/>
<path d="M22.0598 49.585H197.865L233.452 272.617H57.6465L22.0598 49.585Z" fill="white" stroke="black" stroke-width="3"/>
<path d="M285.406 189.713L105.35 189.713C88.7122 189.713 74.5183 177.673 71.8049 161.258C68.3817 140.547 84.3584 121.713 105.35 121.713L285.407 121.713C301.97 121.713 316.123 133.649 318.918 149.976C322.474 170.744 306.477 189.713 285.406 189.713Z" fill="black" stroke="black" stroke-width="3"/>
<path d="M124.723 142.354L124.109 149.569L123.832 152.814L126.479 150.914L132.64 146.49L135.236 151.127L126.947 154.313L123.303 155.713L126.947 157.113L135.237 160.298L132.639 164.935L126.479 160.512L123.832 158.612L124.109 161.857L124.723 169.072L119.109 169.072L119.823 161.879L120.151 158.576L117.455 160.512L111.277 164.948L108.596 160.297L116.981 157.116L120.677 155.713L116.981 154.31L108.595 151.129L111.277 146.477L117.455 150.914L120.151 152.85L119.823 149.548L119.109 142.354L124.723 142.354Z" fill="white" stroke="white" stroke-width="3"/>
<path d="M173.684 142.354L173.07 149.569L172.793 152.814L175.44 150.914L181.601 146.49L184.197 151.127L175.907 154.313L172.264 155.713L175.907 157.113L184.198 160.298L181.6 164.935L175.44 160.512L172.793 158.612L173.07 161.857L173.684 169.072L168.07 169.072L168.783 161.879L169.112 158.576L166.416 160.512L160.238 164.948L157.557 160.297L165.942 157.116L169.638 155.713L165.942 154.31L157.556 151.129L160.238 146.477L166.416 150.914L169.112 152.85L168.783 149.548L168.07 142.354L173.684 142.354Z" fill="white" stroke="white" stroke-width="3"/>
<path d="M222.645 142.354L222.031 149.569L221.754 152.814L224.401 150.914L230.562 146.49L233.157 151.127L224.868 154.313L221.225 155.713L224.868 157.113L233.158 160.298L230.561 164.935L224.401 160.512L221.754 158.612L222.031 161.857L222.645 169.072L217.031 169.072L217.744 161.879L218.073 158.576L215.377 160.512L209.198 164.948L206.518 160.297L214.903 157.116L218.599 155.713L214.903 154.31L206.517 151.129L209.198 146.477L215.377 150.914L218.073 152.849L217.744 149.548L217.031 142.354L222.645 142.354Z" fill="white" stroke="white" stroke-width="3"/>
<path d="M271.607 142.354L270.992 149.569L270.716 152.814L273.363 150.914L279.524 146.49L282.119 151.127L273.83 154.313L270.187 155.713L273.83 157.113L282.12 160.298L279.523 164.935L273.363 160.512L270.716 158.612L270.992 161.857L271.607 169.072L265.992 169.072L266.706 161.879L267.034 158.576L264.339 160.512L258.16 164.948L255.48 160.297L263.865 157.116L267.561 155.713L263.865 154.31L255.479 151.129L258.16 146.477L264.339 150.914L267.034 152.85L266.706 149.548L265.992 142.354L271.607 142.354Z" fill="white" stroke="white" stroke-width="3"/>
</svg>
