<svg width="322" height="326" viewBox="0 0 322 326" fill="none" xmlns="http://www.w3.org/2000/svg">
<g filter="url(#filter0_d_516_804)">
<path d="M39.5923 106.404C38.4298 98.5517 44.5143 91.5 52.4521 91.5H278.3C284.745 91.5 290.216 96.2212 291.16 102.596L319.6 294.691C320.763 302.543 314.678 309.594 306.74 309.594H80.8922C74.4479 309.594 68.9762 304.873 68.0324 298.498L39.5923 106.404Z" fill="white" stroke="black" stroke-width="3"/>
</g>
<path d="M179.464 98.1616H220.784L224.858 132.248L233.113 149.291L228.932 166.334L237.878 183.377L233.006 200.42L242.455 217.463L224.858 240.782L199.941 217.463L204.122 200.42L193.104 183.377L195.903 166.334L185.575 149.291L187.683 132.248L179.464 98.1616Z" fill="white" stroke="black" stroke-width="3"/>
<path fill-rule="evenodd" clip-rule="evenodd" d="M134.86 30.2071C131.89 15.356 143.249 1.5 158.394 1.5H215.034C226.474 1.5 236.324 9.57484 238.567 20.7929L249.406 74.98C252.376 89.8311 241.017 103.687 225.872 103.687H169.232C157.792 103.687 147.942 95.6123 145.698 84.3943L134.86 30.2071ZM187.239 35.2852C186.287 30.9178 182.421 27.8036 177.951 27.8036C171.886 27.8036 167.372 33.4071 168.663 39.3333L175.325 69.9023C176.277 74.2697 180.143 77.384 184.613 77.384C190.678 77.384 195.192 71.7805 193.9 65.8543L187.239 35.2852Z" fill="#329180"/>
<path d="M134.86 30.2071L136.331 29.9129L134.86 30.2071ZM238.567 20.7929L240.038 20.4987V20.4987L238.567 20.7929ZM249.406 74.98L247.935 75.2742V75.2742L249.406 74.98ZM145.698 84.3943L144.227 84.6885V84.6885L145.698 84.3943ZM187.239 35.2852L188.704 34.9659V34.9659L187.239 35.2852ZM168.663 39.3333L170.129 39.0139V39.0139L168.663 39.3333ZM175.325 69.9023L176.791 69.5829V69.5829L175.325 69.9023ZM193.9 65.8543L195.366 65.5349V65.5349L193.9 65.8543ZM158.394 1.5V0C142.302 0 130.233 14.722 133.389 30.5013L134.86 30.2071L136.331 29.9129C133.546 15.99 144.195 3 158.394 3V1.5ZM215.034 1.5V0H158.394V1.5V3H215.034V1.5ZM238.567 20.7929L240.038 20.4987C237.654 8.57952 227.189 0 215.034 0V1.5V3C225.759 3 234.993 10.5702 237.097 21.0871L238.567 20.7929ZM249.406 74.98L250.877 74.6858L240.038 20.4987L238.567 20.7929L237.097 21.0871L247.935 75.2742L249.406 74.98ZM225.872 103.687V105.187C241.964 105.187 254.033 90.4651 250.877 74.6858L249.406 74.98L247.935 75.2742C250.72 89.1971 240.071 102.187 225.872 102.187V103.687ZM169.232 103.687V105.187H225.872V103.687V102.187H169.232V103.687ZM145.698 84.3943L144.227 84.6885C146.611 96.6076 157.077 105.187 169.232 105.187V103.687V102.187C158.507 102.187 149.273 94.617 147.169 84.1001L145.698 84.3943ZM134.86 30.2071L133.389 30.5013L144.227 84.6885L145.698 84.3943L147.169 84.1001L136.331 29.9129L134.86 30.2071ZM177.951 27.8036V29.3036C181.716 29.3036 184.972 31.9264 185.773 35.6046L187.239 35.2852L188.704 34.9659C187.602 29.9093 183.126 26.3036 177.951 26.3036V27.8036ZM168.663 39.3333L170.129 39.0139C169.041 34.0228 172.843 29.3036 177.951 29.3036V27.8036V26.3036C170.929 26.3036 165.702 32.7913 167.198 39.6527L168.663 39.3333ZM175.325 69.9023L176.791 69.5829L170.129 39.0139L168.663 39.3333L167.198 39.6527L173.859 70.2217L175.325 69.9023ZM184.613 77.384V75.884C180.848 75.884 177.592 73.2612 176.791 69.5829L175.325 69.9023L173.859 70.2217C174.961 75.2783 179.437 78.884 184.613 78.884V77.384ZM193.9 65.8543L192.435 66.1737C193.522 71.1647 189.721 75.884 184.613 75.884V77.384V78.884C191.635 78.884 196.861 72.3962 195.366 65.5349L193.9 65.8543ZM187.239 35.2852L185.773 35.6046L192.435 66.1737L193.9 65.8543L195.366 65.5349L188.704 34.9659L187.239 35.2852Z" fill="black"/>
<path d="M74.3857 144.5L126.005 165.881L136.695 191.691L147.386 217.5L126.005 269.119L74.3857 290.5L22.7669 269.119L1.38574 217.5L22.7669 165.881L74.3857 144.5Z" fill="white"/>
<path d="M74.3857 144.5L126.005 165.881M74.3857 144.5L22.7669 165.881M74.3857 144.5V290.5M126.005 165.881L22.7669 269.119M126.005 165.881L136.695 191.691L147.386 217.5M147.386 217.5L126.005 269.119M147.386 217.5H1.38574M126.005 269.119L74.3857 290.5M126.005 269.119L22.7669 165.881M74.3857 290.5L22.7669 269.119M22.7669 269.119L1.38574 217.5M1.38574 217.5L22.7669 165.881" stroke="black" stroke-width="3" stroke-linejoin="bevel"/>
<path d="M22.7669 269.119L1.38574 217.5H74.3857L22.7669 165.881L48.5763 155.191L74.3857 144.5V217.5L126.005 165.881L136.695 191.691L147.386 217.5H74.3857L126.005 269.119L100.195 279.809L74.3857 290.5V217.5L22.7669 269.119Z" fill="black"/>
<path d="M74.3857 144.5V290.5L100.195 279.809L126.005 269.119L22.7669 165.881L48.5763 155.191L74.3857 144.5ZM126.005 165.881L22.7669 269.119L1.38574 217.5H147.386L136.695 191.691L126.005 165.881Z" stroke="black" stroke-width="3" stroke-linejoin="bevel"/>
<circle cx="5.13795" cy="5.13795" r="3.63795" transform="matrix(-1 0 0 1 79.5234 212.362)" fill="white" stroke="black" stroke-width="3"/>
<defs>
<filter id="filter0_d_516_804" x="27.3857" y="90" width="294.421" height="235.094" filterUnits="userSpaceOnUse" color-interpolation-filters="sRGB">
<feFlood flood-opacity="0" result="BackgroundImageFix"/>
<feColorMatrix in="SourceAlpha" type="matrix" values="0 0 0 0 0 0 0 0 0 0 0 0 0 0 0 0 0 0 127 0" result="hardAlpha"/>
<feOffset dx="-10" dy="14"/>
<feComposite in2="hardAlpha" operator="out"/>
<feColorMatrix type="matrix" values="0 0 0 0 0 0 0 0 0 0 0 0 0 0 0 0 0 0 1 0"/>
<feBlend mode="normal" in2="BackgroundImageFix" result="effect1_dropShadow_516_804"/>
<feBlend mode="normal" in="SourceGraphic" in2="effect1_dropShadow_516_804" result="shape"/>
</filter>
</defs>
</svg>
