<svg width="517" height="331" viewBox="0 0 517 331" fill="none" xmlns="http://www.w3.org/2000/svg">
<path d="M111.305 29.2788C108.981 14.7007 120.243 1.5 135.005 1.5L262.204 1.5C274 1.5 284.048 10.0723 285.905 21.7213L328.057 286.106C330.382 300.684 319.119 313.885 304.357 313.885H177.158C165.362 313.885 155.314 305.313 153.457 293.664L111.305 29.2788Z" fill="#329180"/>
<path d="M153.457 293.664L151.976 293.9L153.457 293.664ZM328.057 286.106L329.539 285.87L328.057 286.106ZM135.005 1.5V3L262.204 3V1.5V0L135.005 0V1.5ZM285.905 21.7213L284.424 21.9574L326.576 286.342L328.057 286.106L329.539 285.87L287.386 21.4851L285.905 21.7213ZM304.357 313.885V312.385H177.158V313.885V315.385H304.357V313.885ZM153.457 293.664L154.939 293.428L112.786 29.0426L111.305 29.2788L109.824 29.5149L151.976 293.9L153.457 293.664ZM177.158 313.885V312.385C166.099 312.385 156.68 304.349 154.939 293.428L153.457 293.664L151.976 293.9C153.949 306.277 164.625 315.385 177.158 315.385V313.885ZM328.057 286.106L326.576 286.342C328.755 300.009 318.196 312.385 304.357 312.385V313.885V315.385C320.042 315.385 332.008 301.359 329.539 285.87L328.057 286.106ZM262.204 1.5V3C273.263 3 282.682 11.0365 284.424 21.9574L285.905 21.7213L287.386 21.4851C285.413 9.10806 274.738 0 262.204 0V1.5ZM135.005 1.5V0C119.321 0 107.354 14.0258 109.824 29.5149L111.305 29.2788L112.786 29.0426C110.607 15.3757 121.166 3 135.005 3V1.5Z" fill="black"/>
<path d="M217.714 26.0645L225.654 26.0645" stroke="black" stroke-width="3" stroke-linejoin="round"/>
<path d="M163.903 26.0645H205.069" stroke="black" stroke-width="3" stroke-linejoin="round"/>
<path d="M131.56 49.585H307.365L342.952 272.617H167.146L131.56 49.585Z" fill="white" stroke="black" stroke-width="3"/>
<path d="M193.508 74.5796C193.239 72.7673 194.644 71.1396 196.476 71.1396H474.997C476.484 71.1396 477.747 72.2289 477.965 73.6997L515.344 325.847C515.613 327.659 514.208 329.287 512.376 329.287H233.855C232.368 329.287 231.105 328.198 230.887 326.727L193.508 74.5796Z" fill="white" stroke="black" stroke-width="3"/>
<mask id="mask0_516_804" style="mask-type:alpha" maskUnits="userSpaceOnUse" x="191" y="69" width="326" height="262">
<path d="M193.506 74.5796C193.237 72.7673 194.642 71.1396 196.474 71.1396H474.995C476.482 71.1396 477.745 72.2289 477.963 73.6997L515.342 325.847C515.611 327.659 514.207 329.287 512.375 329.287H233.853C232.366 329.287 231.103 328.198 230.885 326.727L193.506 74.5796Z" fill="white" stroke="black" stroke-width="3"/>
</mask>
<g mask="url(#mask0_516_804)">
<path fill-rule="evenodd" clip-rule="evenodd" d="M250.185 285.759C251.478 285.23 252.255 283.888 252.046 282.507L251.823 281.033C248.717 253.748 245.302 188.361 276.703 150.628C291.713 132.604 312.559 123.276 338.659 122.861C440.281 121.245 455.895 120.997 456.568 163.284C456.646 168.203 457.508 174.333 458.435 180.836L458.438 180.858C461.22 200.723 464.684 225.457 448.409 239.219C440.071 246.266 428.033 249.293 411.607 248.311C408.707 248.138 407.149 252.036 409.484 253.764C410.55 254.553 410.914 255.984 410.354 257.187L406.319 265.856C405.722 267.138 404.311 267.827 402.929 267.529C383.726 263.379 364.052 261.909 356.524 263.826C354.756 264.276 353.455 265.674 352.775 267.367C352.54 267.953 352.329 268.562 352.139 269.19C351.637 270.854 352.855 272.49 354.576 272.729C452.83 286.357 528.477 370.693 528.477 472.697C528.477 584.2 438.086 674.591 326.583 674.591C215.08 674.591 124.689 584.2 124.689 472.697C124.689 388.231 176.56 315.88 250.185 285.759Z" fill="black"/>
</g>
<path d="M193.508 74.5796C193.239 72.7673 194.644 71.1396 196.476 71.1396H474.997C476.484 71.1396 477.747 72.2289 477.965 73.6997L515.344 325.847C515.613 327.659 514.208 329.287 512.376 329.287H233.855C232.368 329.287 231.105 328.198 230.887 326.727L193.508 74.5796Z" stroke="black" stroke-width="3"/>
<path d="M221.906 155.035L41.8496 155.035C25.212 155.035 11.0181 142.994 8.30469 126.58C4.8815 105.869 20.8582 87.0346 41.8496 87.0346L221.906 87.0347C238.47 87.0349 252.623 98.9712 255.418 115.297C258.973 136.066 242.977 155.034 221.906 155.035Z" fill="white" stroke="black" stroke-width="3"/>
<path d="M61.377 107.676L60.7627 114.891L60.4863 118.136L63.1328 116.236L69.2939 111.812L71.8896 116.449L63.6006 119.635L59.957 121.035L63.6006 122.435L71.8906 125.62L69.293 130.257L63.1328 125.833L60.4863 123.934L60.7627 127.179L61.377 134.394L55.7627 134.394L56.4766 127.201L56.8047 123.898L54.1094 125.833L47.9307 130.27L45.25 125.619L53.6348 122.438L57.3311 121.035L53.6348 119.632L45.249 116.451L47.9307 111.799L54.1094 116.236L56.8047 118.172L56.4766 114.87L55.7627 107.676L61.377 107.676Z" fill="black" stroke="black" stroke-width="3"/>
<path d="M110.338 107.676L109.724 114.891L109.447 118.136L112.094 116.236L118.255 111.812L120.851 116.449L112.562 119.635L108.918 121.035L112.562 122.435L120.852 125.62L118.254 130.257L112.094 125.833L109.447 123.934L109.724 127.179L110.338 134.394L104.724 134.394L105.437 127.201L105.766 123.898L103.07 125.833L96.8916 130.27L94.2109 125.619L102.596 122.438L106.292 121.035L102.596 119.632L94.21 116.451L96.8916 111.799L103.07 116.236L105.766 118.172L105.437 114.87L104.724 107.676L110.338 107.676Z" fill="black" stroke="black" stroke-width="3"/>
<path d="M159.299 107.676L158.685 114.891L158.408 118.136L161.055 116.236L167.216 111.812L169.812 116.449L161.522 119.635L157.879 121.035L161.522 122.435L169.812 125.62L167.215 130.257L161.055 125.833L158.408 123.934L158.685 127.179L159.299 134.394L153.685 134.394L154.398 127.201L154.727 123.898L152.031 125.833L145.853 130.27L143.172 125.619L151.557 122.438L155.253 121.035L151.557 119.632L143.171 116.451L145.853 111.799L152.031 116.236L154.727 118.171L154.398 114.87L153.685 107.676L159.299 107.676Z" fill="black" stroke="black" stroke-width="3"/>
<path d="M208.261 107.676L207.646 114.891L207.37 118.136L210.017 116.236L216.178 111.812L218.773 116.449L210.484 119.635L206.841 121.035L210.484 122.435L218.774 125.62L216.177 130.257L210.017 125.833L207.37 123.934L207.646 127.179L208.261 134.394L202.646 134.394L203.36 127.201L203.688 123.898L200.993 125.833L194.814 130.27L192.134 125.619L200.519 122.438L204.215 121.035L200.519 119.632L192.133 116.451L194.814 111.799L200.993 116.236L203.688 118.172L203.36 114.87L202.646 107.676L208.261 107.676Z" fill="black" stroke="black" stroke-width="3"/>
</svg>
